<svg version="1" xmlns="http://www.w3.org/2000/svg" width="682.667" height="682.667" viewBox="0 0 512.000000 512.000000"><path d="M228 97.7c-29.4 2.7-47.2 5.5-67.5 10.7C66.2 132.2 4 187.4.3 250.6c-1.8 30.5 11.4 61.7 37.2 87.8 39 39.6 100.3 65.6 175 74.2 18.5 2.2 65.2 2.5 82.5.6 13.5-1.5 42-6.1 43.7-7 .7-.4-11.1-13.5-31-34.2-17.7-18.5-47.7-49.8-66.7-69.6-19.1-19.8-35.4-37.6-36.3-39.6-3.2-6.7-1.7-14.3 4-21.3 1.5-1.8 13.2-12 25.9-22.7 65.9-55 127-107.4 126-107.9-.6-.4-8.1-2.3-16.6-4.3-17-3.9-37-7-55.5-8.6-10.9-.9-52-1.2-60.5-.3z"/><path d="M355 185.6c-38.8 26.6-73.8 50.7-77.7 53.5-12.3 8.8-14 16.1-5.5 24.1 2 1.9 21.7 15.7 43.7 30.5 22 14.9 57 38.6 77.9 52.7l37.8 25.7 11.2-7.5c35.6-23.8 57.9-51.8 66.3-83.4 2.3-8.4 2.6-11.7 2.6-25.2 0-13.6-.3-16.7-2.6-25.5-7-26.1-24.7-51.4-50.4-71.9-8.9-7.2-28.3-20-31.6-21.1-.7-.2-32.9 21.4-71.7 48.1z"/></svg>