<?xml version="1.0" encoding="UTF-8" standalone="no"?>

<svg
   xmlns:dc="http://purl.org/dc/elements/1.1/"
   xmlns:cc="http://creativecommons.org/ns#"
   xmlns:rdf="http://www.w3.org/1999/02/22-rdf-syntax-ns#"
   xmlns:svg="http://www.w3.org/2000/svg"
   xmlns="http://www.w3.org/2000/svg"
   version="1.1"
   width="590.76001"
   height="150.32001"
   id="svg2"
   xml:space="preserve"><metadata
     id="metadata8"><rdf:RDF><cc:Work
         rdf:about=""><dc:format>image/svg+xml</dc:format><dc:type
           rdf:resource="http://purl.org/dc/dcmitype/StillImage" /><dc:title></dc:title></cc:Work></rdf:RDF></metadata><defs
     id="defs6"><clipPath
       id="clipPath16"><path
         d="m 0,288 560.01,0 0,-288 L 0,0 0,288 z"
         id="path18" /></clipPath></defs><g
     transform="matrix(1.25,0,0,-1.25,-1.618635,140.9407)"
     id="g10"><g
       transform="translate(-34.777692,-90.95704)"
       id="g12"><g
         clip-path="url(#clipPath16)"
         id="g14"><g
           transform="translate(435.0088,165.6055)"
           id="g20"><path
             d="m 0,0 c 0.191,-0.017 0.383,-0.019 0.575,-0.007 1.332,-1.195 1.182,-2.825 1.2,-4.361 0.048,-4.082 0.069,-8.165 0.005,-12.248 -0.262,-1.582 0.256,-3.361 -1.153,-4.659 l -0.328,-0.002 c 0,0 -0.328,0.011 -0.328,0.011 C -0.02,-14.177 -0.01,-7.088 0,0"
             id="path22"
             style="fill:#ffffff;fill-opacity:1;fill-rule:nonzero;stroke:none" /></g><g
           transform="translate(164.0586,87.4736)"
           id="g24"><path
             d="m 0,0 c -16.04,16.729 -32.081,33.457 -48.121,50.186 -1.21,1.261 -2.46,2.591 -2.954,4.268 -1.763,5.984 5.489,10.322 9.261,13.479 5.499,4.598 10.946,9.26 16.418,13.89 11.206,9.482 22.412,18.963 33.617,28.444 0.228,0.192 0.459,0.385 0.694,0.573 -12.224,3.465 -25.809,5.396 -40.121,5.396 -53.45,0 -96.78,-26.92 -96.78,-60.128 0,-33.208 43.33,-60.128 96.78,-60.128 11.173,0 21.901,1.18 31.886,3.344 C 0.447,-0.456 0.22,-0.229 0,0"
             id="path26"
             style="fill:#1d8ed5;fill-opacity:1;fill-rule:nonzero;stroke:none" /></g><g
           transform="translate(229.6328,143.582)"
           id="g28"><path
             d="M 0,0 C 0,17.864 -12.543,33.905 -32.45,44.917 L -88.804,6.323 c -1.85,-1.266 -3.885,-2.844 -4.022,-5.082 -0.156,-2.552 2.209,-4.459 4.326,-5.892 19.304,-13.07 38.608,-26.14 57.913,-39.209 C -11.764,-32.891 0,-17.3 0,0"
             id="path30"
             style="fill:#1d8ed5;fill-opacity:1;fill-rule:nonzero;stroke:none" /></g><g
           transform="translate(464.8896,155.3726)"
           id="g32"><path
             d="m 0,0 -0.295,-0.023 -0.297,0.013 c -1.519,1.471 -1.147,3.399 -1.157,5.182 -0.051,9.403 0.001,18.806 -0.032,28.208 -0.018,4.691 -0.309,4.976 -4.986,4.997 -7.326,0.032 -14.653,0.037 -21.98,-0.004 -3.162,-0.018 -3.319,-0.272 -1.882,-3.004 0.983,-1.869 1.674,-3.816 1.931,-5.884 0.785,-6.302 1.104,-12.613 -0.073,-18.915 -0.269,-0.448 -0.639,-0.56 -1.11,-0.337 -0.45,6.419 0.411,12.859 -0.7,19.3 -0.549,3.181 -2.451,5.465 -3.772,8.111 -1.093,2.193 -0.385,2.605 1.557,2.606 10.121,0.006 20.242,-0.054 30.361,0.04 C 0.213,40.314 0.11,38.752 0.103,36.946 0.053,24.631 0.031,12.315 0,0"
             id="path34"
             style="fill:#aab2ba;fill-opacity:1;fill-rule:nonzero;stroke:none" /></g><g
           transform="translate(435.6016,121.5381)"
           id="g36"><path
             d="m 0,0 c -1.356,2.771 -0.535,5.721 -0.622,8.579 -0.145,4.736 -0.014,9.482 0.001,14.223 0.424,0.191 0.795,0.116 1.114,-0.219 1.261,-1.956 3.136,-2.439 5.344,-2.42 5.464,0.048 10.929,-0.013 16.393,0.024 4.969,0.034 5.256,0.356 5.352,5.446 0.009,0.486 0.016,0.971 -0.002,1.46 0.059,2.126 -0.303,4.292 0.609,6.335 0.26,0.422 0.627,0.556 1.1,0.406 C 29.306,23.351 29.323,12.867 29.34,2.384 29.342,1.529 29.381,0.664 28.686,0 c -1.863,2.217 -0.969,4.902 -1.143,7.371 -0.16,2.282 -1.033,3.29 -3.337,3.284 -6.575,-0.017 -13.15,-0.017 -19.726,0 C 2.176,10.661 1.304,9.653 1.143,7.371 0.97,4.902 1.862,2.217 0,0"
             id="path38"
             style="fill:#aab2ba;fill-opacity:1;fill-rule:nonzero;stroke:none" /></g><g
           transform="translate(435.6016,121.5381)"
           id="g40"><path
             d="m 0,0 c 0.021,2.919 0.134,5.84 0.034,8.755 -0.071,2.078 0.45,3.107 2.815,3.072 7.661,-0.112 15.326,-0.112 22.987,0 2.363,0.035 2.888,-0.992 2.816,-3.071 -0.1,-2.914 0.012,-5.836 0.034,-8.755 -0.037,-2.673 -0.074,-5.345 -0.11,-8.017 -0.452,-0.192 -0.811,-0.082 -1.082,0.328 -0.744,1.371 -0.584,2.87 -0.621,4.34 -0.149,7.459 -0.149,7.46 -7.761,7.462 C 15.104,4.115 11.093,4.148 7.084,4.104 2.305,4.05 1.929,3.648 1.864,-1.133 1.854,-1.861 1.888,-2.592 1.818,-3.32 1.793,-4.804 1.948,-6.311 1.201,-7.69 0.928,-8.104 0.562,-8.212 0.106,-8.015 0.071,-5.344 0.036,-2.672 0,0"
             id="path42"
             style="fill:#aab2ba;fill-opacity:1;fill-rule:nonzero;stroke:none" /></g><g
           transform="translate(463.5254,113.5088)"
           id="g44"><path
             d="m 0,0 c 0.107,0.05 0.235,0.008 0.341,-0.049 0.697,-0.371 0.944,-1.231 1.11,-2.004 0.476,-2.218 0.833,-4.468 1.517,-6.632 0.493,-1.564 1.165,-3.101 2.135,-4.432 0.447,-0.613 1.348,-1.124 0.896,-1.827 -0.412,-0.641 -1.488,-0.379 -2.094,-0.381 -9.513,-0.029 -19.029,0.066 -28.542,-0.074 -2.607,-0.039 -3.388,0.815 -3.269,3.341 0.191,4.017 0.075,8.047 0.089,12.073 0.22,0.014 0.44,0.025 0.661,0.033 1.377,-1.433 1.037,-3.232 1.064,-4.95 0.088,-8.665 0.088,-8.667 8.772,-8.664 5.59,0.002 11.18,0.012 16.77,-0.003 2.221,-0.007 3.279,0.628 2.192,3.019 -0.754,1.661 -1.182,3.446 -1.621,5.218 -0.129,1.763 -0.937,3.333 -0.208,5.088 0.04,0.096 0.09,0.198 0.187,0.244"
             id="path46"
             style="fill:#aab2ba;fill-opacity:1;fill-rule:nonzero;stroke:none" /></g><g
           transform="translate(435.6924,148.7207)"
           id="g48"><path
             d="m 0,0 c -0.036,5.626 -0.072,11.251 -0.108,16.878 -0.193,6.672 0.529,13.34 -0.524,20.03 -0.536,3.408 -3.167,5.619 -3.966,9.183 10.497,0 20.91,0.009 31.324,-0.007 2.451,-0.003 1.743,-1.928 1.752,-3.217 C 28.556,30.792 28.571,18.716 28.605,6.642 28.566,4.434 28.527,2.225 28.487,0.017 27.48,-2.042 25.599,-2.486 23.581,-2.527 17.363,-2.654 11.145,-2.651 4.926,-2.529 2.904,-2.489 1.034,-2.026 0,0"
             id="path50"
             style="fill:#aab2ba;fill-opacity:1;fill-rule:nonzero;stroke:none" /></g><g
           transform="translate(435.6924,148.7207)"
           id="g52"><path
             d="m 0,0 c 1.795,-1.143 3.726,-1.548 5.874,-1.509 5.582,0.103 11.168,0.1 16.75,0.002 2.145,-0.037 4.085,0.336 5.864,1.524 C 28.574,-8.188 29.676,-8.13 20.47,-8.076 14.985,-8.044 9.501,-8.047 4.018,-8.079 1.487,-8.094 -0.36,-7.458 -0.056,-4.391 -0.037,-2.927 -0.019,-1.463 0,0"
             id="path54"
             style="fill:#aab2ba;fill-opacity:1;fill-rule:nonzero;stroke:none" /></g><g
           transform="translate(463.5205,113.5576)"
           id="g56"><path
             d="m 0,0 c 0.363,-1.697 0.959,-3.361 0.716,-5.143 -1.02,-1.083 -2.381,-1.128 -3.709,-1.143 -6.787,-0.078 -13.574,-0.07 -20.361,-0.006 -1.34,0.013 -2.677,0.123 -3.739,1.114 l -0.058,5.177 c 0.006,1.459 0.014,2.919 0.021,4.378 1.063,0.974 2.387,1.134 3.734,1.147 6.547,0.066 13.093,0.066 19.64,0 C -2.408,5.511 -1.085,5.351 -0.022,4.377 -0.015,2.918 -0.008,1.459 0,0"
             id="path58"
             style="fill:#aab2ba;fill-opacity:1;fill-rule:nonzero;stroke:none" /></g><g
           transform="translate(463.498,117.9346)"
           id="g60"><path
             d="m 0,0 -27.107,0 c 0.121,9.1 -1.642,8.84 8.805,8.797 4.383,-0.018 8.767,0.007 13.15,-0.005 C -0.198,8.777 -0.005,8.577 0.007,3.652 0.009,2.435 0.003,1.217 0,0"
             id="path62"
             style="fill:#aab2ba;fill-opacity:1;fill-rule:nonzero;stroke:none" /></g><g
           transform="translate(436.4277,108.3799)"
           id="g64"><path
             d="m 0,0 27.809,0.035 c 1.019,-2.555 1.981,-5.135 3.078,-7.656 0.745,-1.712 -0.212,-1.865 -1.479,-1.865 -9.106,0 -18.213,0.016 -27.32,-0.012 C 0.511,-9.503 -0.07,-8.79 -0.037,-7.285 0.015,-4.857 -0.009,-2.429 0,0"
             id="path66"
             style="fill:#aab2ba;fill-opacity:1;fill-rule:nonzero;stroke:none" /></g><g
           transform="translate(464.9541,103.2275)"
           id="g68"><path
             d="m 0,0 0,88.647 c 0,4.826 -7.5,4.834 -7.5,0 L -7.5,0 C -7.5,-4.826 0,-4.834 0,0"
             id="path70"
             style="fill:#aab2ba;fill-opacity:1;fill-rule:nonzero;stroke:none" /></g><g
           transform="translate(442.2656,101.8506)"
           id="g72"><path
             d="m 0,0 0,85.899 c 0,4.826 -7.5,4.834 -7.5,0 L -7.5,0 C -7.5,-4.826 0,-4.834 0,0"
             id="path74"
             style="fill:#aab2ba;fill-opacity:1;fill-rule:nonzero;stroke:none" /></g><g
           transform="translate(480.2686,100.5322)"
           id="g76"><path
             d="m 0,0 0,52.589 c 0,3.218 -5,3.223 -5,0 L -5,0 c 0,-3.218 5,-3.223 5,0"
             id="path78"
             style="fill:#ffffff;fill-opacity:1;fill-rule:nonzero;stroke:none" /></g><g
           transform="translate(504.2393,189.8369)"
           id="g80"><path
             d="m 0,0 c 3.712,-6.43 -0.31,-15.701 -8.982,-20.708 -8.673,-5.007 -18.713,-3.854 -22.425,2.575 -3.712,6.43 0.309,15.701 8.982,20.708 C -13.752,7.583 -3.713,6.43 0,0"
             id="path82"
             style="fill:#1d8ed5;fill-opacity:1;fill-rule:nonzero;stroke:none" /></g><g
           transform="translate(475.2207,148.7617)"
           id="g84"><path
             d="M 0,0 C -0.239,0.697 -0.478,1.395 -0.716,2.091 -0.969,2.508 -1.221,2.93 -1.559,3.283 -4.574,6.43 -4.59,6.486 -0.553,7.46 c 8.921,2.152 17.827,4.359 26.705,6.685 3.476,0.911 3.59,0.822 3.492,-2.883 C 29.533,7.144 30.132,3.003 29.283,-1.096 28.102,-2.389 26.513,-2.561 24.925,-2.583 18.358,-2.67 11.791,-2.68 5.226,-2.578 3.626,-2.552 2.063,-2.295 0.874,-1.045 0.56,-0.716 0.269,-0.367 0,0"
             id="path86"
             style="fill:#aab2ba;fill-opacity:1;fill-rule:nonzero;stroke:none" /></g><g
           transform="translate(505.2373,125.0107)"
           id="g88"><path
             d="m 0,0 c -0.003,6.687 -0.017,13.373 -0.027,20.06 -0.429,0.193 -0.79,0.107 -1.081,-0.265 -0.944,-2.889 -3.085,-3.832 -5.939,-3.824 -5.37,0.014 -10.743,-0.104 -16.111,0.045 -3.946,0.108 -4.558,0.737 -5.097,4.59 -0.154,1.108 -0.411,2.152 -1.023,3.094 -0.246,0.017 -0.493,0.034 -0.739,0.051 0.008,-6.758 -0.005,-13.517 0.043,-20.274 0.66,-0.03 1.249,-0.164 1.766,-0.384 -0.004,0.27 -0.001,0.54 0.015,0.806 0.137,2.288 1.03,3.291 3.335,3.286 6.577,-0.018 13.155,-0.018 19.732,0 C -2.822,7.19 -1.93,6.187 -1.792,3.899 -1.657,1.67 -2.413,-0.776 -0.65,-2.743 0.146,-1.967 0,-0.96 0,0"
             id="path90"
             style="fill:#aab2ba;fill-opacity:1;fill-rule:nonzero;stroke:none" /></g><g
           transform="translate(504.5439,130.6592)"
           id="g92"><path
             d="m 0,0 c 0.036,1.759 -0.439,2.704 -2.44,2.687 -7.907,-0.067 -15.813,-0.067 -23.718,0 -1.266,0.01 -1.919,-0.367 -2.22,-1.087 1.488,-0.918 2.607,-2.564 2.417,-4.259 -0.143,-1.286 -0.315,-2.57 -0.463,-3.855 0.487,1.376 1.69,1.482 4.83,1.504 4.266,0.03 8.531,0.008 12.797,0.006 6.878,-0.003 6.878,-0.004 7.035,-6.684 0.033,-1.256 -0.034,-2.53 0.628,-3.681 0.278,-0.402 0.636,-0.503 1.08,-0.299 0.033,2.425 0.065,4.851 0.097,7.276 C 0.021,-5.594 -0.059,-2.795 0,0"
             id="path94"
             style="fill:#aab2ba;fill-opacity:1;fill-rule:nonzero;stroke:none" /></g><g
           transform="translate(475.999,114.9912)"
           id="g96"><path
             d="m 0,0 c 0.225,0.013 0.449,0.022 0.673,0.03 1.066,-1 1.028,-2.317 1.05,-3.617 0.089,-2.785 0.029,-5.576 0.034,-8.365 0.004,-2.113 0.922,-3.088 3.072,-3.087 7.522,0.003 15.043,0.017 22.565,-0.007 2.442,-0.007 2.96,0.95 2.038,3.145 -1.037,2.464 -1.694,5.057 -2.007,7.727 -0.229,1.437 -0.864,2.91 0.394,4.204 0.224,-0.008 0.449,-0.017 0.672,-0.03 0.967,-5.734 2.068,-11.426 5.791,-16.807 -11.193,0 -21.871,0.006 -32.548,-0.005 -1.85,-0.002 -1.764,1.285 -1.762,2.53 C -0.022,-9.521 -0.01,-4.761 0,0"
             id="path98"
             style="fill:#aab2ba;fill-opacity:1;fill-rule:nonzero;stroke:none" /></g><g
           transform="translate(504.498,147.9956)"
           id="g100"><path
             d="m 0,0 c 0.02,-0.977 0.04,-1.954 0.061,-2.931 0.632,-3.813 -1.662,-5.042 -4.822,-5.101 -6.321,-0.116 -12.648,-0.122 -18.97,0.003 -3.139,0.062 -5.441,1.238 -4.835,5.1 0.186,1.187 0.027,2.428 0.026,3.644 1.14,-0.629 2.087,-1.515 3.592,-1.499 7.14,0.08 14.283,0.003 21.425,0.071 C -2.347,-0.703 -1.175,-0.249 0,0"
             id="path102"
             style="fill:#aab2ba;fill-opacity:1;fill-rule:nonzero;stroke:none" /></g><g
           transform="translate(476.6914,118.668)"
           id="g104"><path
             d="M 0,0 C 0.046,9.195 -0.988,7.986 7.89,8.055 12.762,8.093 17.648,7.833 22.501,8.135 26.329,8.372 27.6,6.869 27.136,3.286 26.996,2.207 27.109,1.097 27.107,0 26.044,-0.973 24.72,-1.131 23.372,-1.145 16.826,-1.21 10.28,-1.21 3.734,-1.145 2.388,-1.131 1.063,-0.973 0,0"
             id="path106"
             style="fill:#aab2ba;fill-opacity:1;fill-rule:nonzero;stroke:none" /></g><g
           transform="translate(476.6914,118.668)"
           id="g108"><path
             d="M 0,0 27.107,0 C 27.113,-1.216 27.12,-2.432 27.126,-3.646 27,-4.947 27.176,-6.191 27.81,-7.353 26.75,-8.338 25.418,-8.457 24.079,-8.47 17.307,-8.535 10.534,-8.535 3.762,-8.47 2.423,-8.457 1.091,-8.339 0.031,-7.353 0.015,-6.117 -0.002,-4.882 -0.02,-3.646 -0.013,-2.431 -0.007,-1.216 0,0"
             id="path110"
             style="fill:#aab2ba;fill-opacity:1;fill-rule:nonzero;stroke:none" /></g><g
           transform="translate(476.7227,111.3154)"
           id="g112"><path
             d="m 0,0 c 9.26,0 18.52,0.001 27.778,0.001 0.253,-3.563 1.21,-6.926 2.903,-10.068 0.917,-1.704 0.518,-2.396 -1.472,-2.386 -8.905,0.046 -17.811,0.056 -26.715,-0.006 -1.904,-0.013 -2.608,0.696 -2.551,2.579 C 0.044,-6.589 -0.011,-3.294 0,0"
             id="path114"
             style="fill:#aab2ba;fill-opacity:1;fill-rule:nonzero;stroke:none" /></g><g
           transform="translate(475.2041,132.7969)"
           id="g116"><path
             d="m 0,0 0,-32.609 c 0,-2.575 4,-2.579 4,0 L 4,0 C 4,2.573 0,2.578 0,0"
             id="path118"
             style="fill:#aab2ba;fill-opacity:1;fill-rule:nonzero;stroke:none" /></g><g
           transform="translate(505.418,100.5322)"
           id="g120"><path
             d="m 0,0 0,61.218 c 0,1.93 -3,1.933 -3,0 L -3,0 c 0,-1.931 3,-1.934 3,0"
             id="path122"
             style="fill:#aab2ba;fill-opacity:1;fill-rule:nonzero;stroke:none" /></g><g
           transform="translate(505.21,145.0703)"
           id="g124"><path
             d="m 0,0 -0.325,-0.009 -0.325,0.004 c -0.921,0.958 -0.753,1.939 -0.062,2.93 0.005,4.022 -0.168,8.054 0.078,12.061 0.164,2.686 -0.912,2.989 -3.075,2.434 -9.827,-2.518 -19.662,-5.004 -29.734,-7.563 0.642,-1.64 2.917,-2.107 2.738,-4.073 -1.171,1.401 -4.049,1.892 -3.414,4.115 0.512,1.789 3.045,1.444 4.731,1.87 8.903,2.249 17.841,4.361 26.706,6.746 2.326,0.626 2.8,-0.017 2.771,-2.105 C 0.014,10.941 0.023,5.47 0,0"
             id="path126"
             style="fill:#aab2ba;fill-opacity:1;fill-rule:nonzero;stroke:none" /></g><g
           transform="translate(353.3535,153.2051)"
           id="g128"><path
             d="m 0,0 c -0.481,-1.461 -0.696,-3.173 0.217,-4.515 0.931,-1.371 2.554,-1.704 4.045,-1.117 1.623,0.64 2.875,2.155 3.994,3.43 1.464,1.669 2.899,3.364 4.348,5.046 C 14.694,5.27 11.173,8.822 9.068,6.379 7.619,4.697 6.183,3.004 4.721,1.334 4.145,0.676 3.352,0.071 2.857,-0.635 2.72,-0.776 2.566,-0.898 2.396,-1 3.111,-1.378 3.826,-1.757 4.54,-2.135 4.614,-2.09 4.854,-1.228 4.821,-1.329 5.831,1.734 1.004,3.047 0,0"
             id="path130"
             style="fill:#aab2ba;fill-opacity:1;fill-rule:nonzero;stroke:none" /></g><g
           transform="translate(424.7246,159.2358)"
           id="g132"><path
             d="m 0,0 c -1.127,5.284 -3.658,9.403 -9.555,11.123 -5.017,1.463 -10.051,2.424 -15.26,2.987 -11.093,1.201 -22.02,1.192 -32.745,-2.316 -1.217,-0.563 -2.38,-1.231 -3.6,-1.782 -8.223,-3.72 -11.427,-12.863 -9.958,-20.622 0.074,-0.085 0.14,-0.148 0.211,-0.223 0.523,0.291 1.132,0.487 1.825,0.561 0.567,0.556 1.296,0.971 2.19,1.164 0.587,1.073 1.566,1.921 2.945,2.235 1.951,1.589 3.89,3.192 5.898,4.713 6.155,4.663 12.748,7.902 20.769,7.43 6.093,-0.36 10.397,-4.718 10.522,-10.81 0.039,-1.89 -0.662,-3.912 0.651,-5.663 1.502,-1.146 3.268,-1.656 5.097,-1.743 5.463,-0.259 10.936,-0.308 16.395,0.026 1.229,0.075 2.467,0.271 3.557,0.812 l 0,8.539 c 0,1.341 0.438,2.397 1.124,3.179 C 0.04,-0.261 0.018,-0.131 0,0"
             id="path134"
             style="fill:#aab2ba;fill-opacity:1;fill-rule:nonzero;stroke:none" /></g><g
           transform="translate(427.5742,103.3564)"
           id="g136"><path
             d="m 0,0 c -1.29,2.037 -1.867,4.165 -2.104,6.336 -1.068,0.8 -1.803,2.066 -1.803,3.808 l 0,14.549 c -0.806,0.353 -1.738,0.452 -2.688,0.471 -5.801,0.121 -11.604,0.1 -17.407,0.013 -1.729,-0.027 -3.375,-0.364 -4.581,-1.789 -0.009,-0.012 -0.014,-0.024 -0.022,-0.036 0.065,-0.701 0.001,-1.415 -0.188,-2.088 -0.049,-0.39 -0.153,-0.767 -0.285,-1.133 -0.002,-0.821 -0.182,-1.642 -0.532,-2.373 -0.049,-0.582 -0.191,-1.136 -0.428,-1.651 -1.176,-4.345 -4.273,-7.391 -8.773,-8.504 -4.647,-1.15 -7.832,0.143 -9.221,3.598 -0.04,0.059 -0.066,0.127 -0.103,0.188 -0.426,0.604 -0.703,1.309 -0.838,2.045 -0.172,0.497 -0.268,1.016 -0.268,1.543 l 0,6.661 c -0.023,0.081 -0.037,0.162 -0.063,0.243 -0.497,2.225 -1.939,3.245 -4.175,3.277 -6.154,0.087 -12.308,0.098 -18.461,0.002 -0.279,-0.779 -0.539,-1.566 -0.813,-2.346 -0.906,-2.585 -3.251,-4.045 -5.964,-3.517 -0.106,-0.359 -0.224,-0.712 -0.387,-1.053 -0.006,-1.831 -0.153,-3.675 0.007,-5.492 0.493,-5.594 2.612,-10.787 7.339,-13.687 12.706,-7.791 25.861,-7.409 38.904,-0.52 1.483,0.783 2.375,1.632 3.007,-0.821 0.388,-1.505 1.644,-2.86 3.423,-2.871 9.823,-0.062 19.647,-0.03 30.014,-0.03 C 2.153,-3.114 1.012,-1.599 0,0"
             id="path138"
             style="fill:#aab2ba;fill-opacity:1;fill-rule:nonzero;stroke:none" /></g><g
           transform="translate(421.1562,142.4854)"
           id="g140"><path
             d="m 0,0 c -7.027,-0.031 -14.055,-0.185 -21.08,0.089 -0.839,0.032 -1.695,0.201 -2.312,0.896 -0.282,0.276 -0.582,0.532 -0.904,0.763 -2.07,-1.166 -4.284,-1.449 -6.651,-1.414 -6.683,0.099 -13.367,-0.03 -20.05,0.053 -2.831,0.034 -5.412,-0.422 -7.779,-1.312 -0.318,-0.316 -0.689,-0.586 -1.111,-0.799 -0.49,-0.635 -1.144,-1.15 -1.973,-1.454 -0.068,-0.889 -0.33,-1.759 -0.809,-2.497 0.357,-0.988 0.409,-2.106 0.148,-3.133 6.351,-0.05 12.705,-0.011 19.056,-0.025 1.618,-0.003 3.23,-0.044 4.734,-0.586 0.33,0.064 0.678,0.101 1.051,0.101 l 10.691,0 c 1.105,0 2.016,-0.3 2.742,-0.787 0.817,0.573 1.676,1.069 2.702,1.126 7.279,0.398 14.563,0.244 21.844,0.091 1.015,-0.02 1.743,-0.363 2.212,-0.956 l 0,10.987 C 2.031,0.472 1.3,0.006 0,0"
             id="path142"
             style="fill:#aab2ba;fill-opacity:1;fill-rule:nonzero;stroke:none" /></g><g
           transform="translate(379.8936,134.7773)"
           id="g144"><path
             d="m 0,0 c -7.03,0.027 -14.061,0.028 -21.092,0.035 -0.041,-1.264 -0.508,-2.509 -1.432,-3.348 0.005,0.005 -0.235,-0.223 -0.414,-0.388 -0.118,-0.168 -0.386,-0.512 -0.431,-0.587 -0.15,-0.253 -0.279,-0.515 -0.419,-0.773 -0.046,-0.085 -0.079,-0.149 -0.107,-0.203 -0.263,-0.648 -0.491,-1.31 -0.714,-1.974 0.091,-0.002 0.18,-0.002 0.274,-0.007 5.807,-0.257 11.638,-0.22 17.447,0 2.518,0.095 4.035,-0.628 4.759,-3.003 0.192,0.239 0.38,0.482 0.568,0.725 l 0,1.413 c 0,0.617 0.128,1.19 0.331,1.724 0.092,2.423 1.692,4.776 4.813,4.776 l 0.671,0 C 3.458,0.227 1.644,-0.006 0,0"
             id="path146"
             style="fill:#aab2ba;fill-opacity:1;fill-rule:nonzero;stroke:none" /></g><g
           transform="translate(424.7686,161.043)"
           id="g148"><path
             d="m 0,0 c -1.286,4.913 -4.574,8.016 -10.368,9.983 -4.612,1.567 -9.361,2.21 -14.197,2.716 -11.301,1.18 -22.475,1.339 -33.4,-2.394 -0.073,0 -0.147,-0.082 -0.223,-0.247 -0.076,-0.166 -0.006,-0.336 0.207,-0.508 3.92,0.648 7.631,2.062 11.666,2.47 13.181,1.33 26.08,0.568 38.622,-3.921 1.802,-0.646 3.178,-1.92 4.419,-3.545 1.639,-2.149 2.277,-4.634 3.036,-7.073 0.079,0.109 0.178,0.196 0.265,0.296 C -0.125,-1.495 -0.135,-0.732 0,0"
             id="path150"
             style="fill:#aab2ba;fill-opacity:1;fill-rule:nonzero;stroke:none" /></g><g
           transform="translate(398.3291,148.7319)"
           id="g152"><path
             d="m 0,0 c -0.311,3 0.608,6.101 -0.563,9.015 -2.873,7.145 -8.818,8.206 -16.89,6.719 -8.441,-1.554 -14.997,-6.546 -20.94,-12.377 0.517,0.227 1.11,0.364 1.772,0.397 5.908,4.867 11.878,9.622 19.719,11.291 7.379,1.572 14.044,-1.001 15.63,-7.046 C -0.22,3.984 -0.146,-0.354 -1.469,-4.499 -1.486,-4.713 -1.499,-4.928 -1.508,-5.144 1.228,-4.562 1.514,-3.585 0,0"
             id="path154"
             style="fill:#aab2ba;fill-opacity:1;fill-rule:nonzero;stroke:none" /></g><g
           transform="translate(366.8037,171.3477)"
           id="g156"><path
             d="m 0,0 c -0.006,-0.251 -0.012,-0.502 -0.017,-0.754 -0.268,-0.235 -0.499,-0.562 -0.811,-0.691 -9.554,-3.94 -12.894,-11.482 -12.369,-21.276 -2.625,7.018 1.435,16.413 8.971,20.66 C -2.862,-1.293 -1.411,-0.683 0,0"
             id="path158"
             style="fill:#aab2ba;fill-opacity:1;fill-rule:nonzero;stroke:none" /></g><g
           transform="translate(423.667,148.3374)"
           id="g160"><path
             d="m 0,0 c -8.447,-1.866 -16.893,-1.769 -25.338,0.395 -0.6,-1.687 1.186,-4.072 -1.508,-5.145 0.194,-2.246 1.822,-2.211 3.464,-2.208 6.314,0.01 12.626,0.002 18.94,0.003 2.156,0.001 3.538,0.007 4.442,0.271 L 0,0 z"
             id="path162"
             style="fill:#aab2ba;fill-opacity:1;fill-rule:nonzero;stroke:none" /></g><g
           transform="translate(424.5859,110.5635)"
           id="g164"><path
             d="m 0,0 c -0.435,0.575 -0.735,1.287 -0.855,2.126 -0.428,0.227 -0.888,0.374 -1.386,0.38 -8.51,0.101 -17.024,0.596 -25.524,-0.263 -1.243,0.022 -1.881,-0.971 -2.753,-1.601 -5.419,-3.926 -11.955,-3.56 -15.589,0.838 -8.619,0.923 -17.252,0.409 -25.881,0.239 -0.726,-0.015 -1.419,-0.343 -1.905,-0.959 0.934,-3.408 2.975,-6.017 5.816,-8.047 12.709,-0.639 25.419,-0.699 38.128,-0.001 1.606,0.893 2.934,1.145 3.677,-1.113 0.837,-2.55 2.739,-3.372 5.389,-3.328 7.07,0.121 14.145,0.011 21.217,0.071 1.247,0.01 2.656,-0.531 3.844,0.646 C 1.764,-7.652 0.035,-4.098 0,0"
             id="path166"
             style="fill:#aab2ba;fill-opacity:1;fill-rule:nonzero;stroke:none" /></g><g
           transform="translate(378.4785,112.0439)"
           id="g168"><path
             d="m 0,0 c -1.55,-0.933 -3.27,-0.695 -4.948,-0.698 -7.614,-0.015 -15.226,-0.017 -22.838,-0.023 -0.106,0.22 -0.23,0.433 -0.315,0.659 -2.534,6.736 -2.066,7.419 5.073,7.419 6.098,0 12.199,-0.063 18.297,0.034 C -2.563,7.425 -1.098,7.083 -1.44,4.456 -1.662,2.758 -0.578,1.455 0,0"
             id="path170"
             style="fill:#aab2ba;fill-opacity:1;fill-rule:nonzero;stroke:none" /></g><g
           transform="translate(423.667,134.5508)"
           id="g172"><path
             d="m 0,0 c -0.35,0.112 -0.739,0.179 -1.181,0.184 -7.642,0.073 -15.289,0.101 -22.927,-0.085 -0.883,-0.022 -3.304,0.486 -2.753,-2.086 0.038,-0.065 0.077,-0.128 0.115,-0.192 1.45,-0.981 2.139,-2.73 2.065,-4.447 0.001,-0.034 0.01,-0.066 0.01,-0.101 0.098,-0.578 0.122,-1.18 0.019,-1.827 1.29,0.914 2.592,1.541 4.305,1.508 5.912,-0.112 11.83,-0.105 17.743,-0.003 0.973,0.017 1.819,-0.172 2.604,-0.51 L 0,0 z"
             id="path174"
             style="fill:#aab2ba;fill-opacity:1;fill-rule:nonzero;stroke:none" /></g><g
           transform="translate(423.667,113.5)"
           id="g176"><path
             d="m 0,0 0,5.403 c -0.735,0.495 -1.824,0.683 -3.352,0.572 -4.249,-0.309 -8.579,-0.449 -12.798,0.02 -5.576,0.619 -9.409,-0.805 -10.696,-6.688 1.075,-1.196 2.501,-0.703 3.778,-0.711 7.754,-0.049 15.509,-0.038 23.264,-0.044 C 0.072,-1.007 0,-0.527 0,0"
             id="path178"
             style="fill:#aab2ba;fill-opacity:1;fill-rule:nonzero;stroke:none" /></g><g
           transform="translate(356.5088,103.2764)"
           id="g180"><path
             d="M 0,0 C 0.986,0.524 2.021,0.754 3.154,0.752 13.761,0.728 24.367,0.728 34.973,0.752 36.107,0.754 37.142,0.524 38.128,0 29.839,-5.571 20.759,-6.606 11.134,-4.834 7.021,-4.076 3.513,-2.066 0,0"
             id="path182"
             style="fill:#aab2ba;fill-opacity:1;fill-rule:nonzero;stroke:none" /></g><g
           transform="translate(412.6807,169.1812)"
           id="g184"><path
             d="m 0,0 c 6.492,-1.049 11.048,-6.273 10.176,-11.667 -0.871,-5.395 -6.841,-8.918 -13.333,-7.869 -6.492,1.049 -11.048,6.273 -10.176,11.667 C -12.462,-2.474 -6.492,1.049 0,0"
             id="path186"
             style="fill:#aab2ba;fill-opacity:1;fill-rule:nonzero;stroke:none" /></g><g
           transform="translate(353.1289,133.8457)"
           id="g188"><path
             d="M 0,0 C 5.255,7.068 12.987,10.215 17.272,7.03 21.557,3.845 20.771,-4.467 15.517,-11.535 10.263,-18.603 2.53,-21.75 -1.755,-18.564 -6.04,-15.379 -5.254,-7.067 0,0"
             id="path190"
             style="fill:#aab2ba;fill-opacity:1;fill-rule:nonzero;stroke:none" /></g><g
           transform="translate(417.8164,160.4648)"
           id="g192"><path
             d="m 0,0 1.38,-54.237 c 0.114,-4.496 7.115,-4.514 7,0 L 7,0 C 6.886,4.496 -0.115,4.514 0,0"
             id="path194"
             style="fill:#aab2ba;fill-opacity:1;fill-rule:nonzero;stroke:none" /></g><g
           transform="translate(309.6309,150.9097)"
           id="g196"><path
             d="m 0,0 c -0.312,-0.323 -0.5,-0.707 -0.559,-1.153 -0.016,-0.44 0.051,-0.865 0.211,-1.275 0.666,-1.454 1.746,-2.639 2.545,-4.005 1.195,-2.041 0.727,-3.211 -1.711,-3.409 -1.215,-0.1 -2.432,-0.07 -3.649,-0.071 -15.825,-0.002 -31.649,-0.003 -47.474,0 -3.811,0 -5.717,10e-4 -6.676,0.96 -2.318,5.043 0.682,10.043 -2.318,15.043 0,-8 0,-15 -0.419,-23.205 -0.002,-1.936 -0.005,-3.875 -0.008,-5.814 0.379,-0.91 0.501,-1.937 0.367,-2.924 0.043,-0.344 0.063,-0.69 0.044,-1.037 0.069,-0.096 0.148,-0.191 0.243,-0.28 0.84,0.675 1.098,1.653 1.057,2.618 -0.167,3.931 0.76,4.392 4.883,4.384 6.818,-0.015 13.637,-0.05 20.454,0.019 2.625,0.026 4.229,-0.699 4.098,-3.675 -0.052,-1.196 0.062,-2.458 1.111,-3.346 1.647,3.087 -0.157,6.607 1.039,9.739 2.373,-0.736 1.24,-4.331 4.068,-4.501 1.799,1.495 3.924,1.762 6.173,1.755 7.914,-0.024 15.828,-0.04 23.742,0.012 1.784,0.012 3.695,-0.338 5.2,1.098 C 7.642,-13.127 5.002,-5.794 0,0"
             id="path198"
             style="fill:#aab2ba;fill-opacity:1;fill-rule:nonzero;stroke:none" /></g><g
           transform="translate(281.8301,123.7402)"
           id="g200"><path
             d="m 0,0 c -0.021,1.337 -0.221,2.701 -0.026,4.005 0.522,3.499 -1.049,4.301 -4.291,4.182 -6.313,-0.231 -12.64,-0.068 -18.961,-0.068 -8.113,0 -8.113,0 -8.325,-8.12 0.01,-7.561 0.025,-15.121 0.027,-22.682 0.001,-1.502 -0.114,-2.92 2.097,-2.932 l 1.149,0 c 0.002,0 0.004,-0.001 0.006,-0.001 11.172,0.043 22.357,0.019 33.984,0.019 C 1.094,-17.342 -0.491,-8.884 0,0"
             id="path202"
             style="fill:#aab2ba;fill-opacity:1;fill-rule:nonzero;stroke:none" /></g><g
           transform="translate(286.9365,128.9775)"
           id="g204"><path
             d="m 0,0 c -0.203,2.952 1.798,2.896 3.855,2.892 10.42,-0.028 20.84,-0.021 31.26,-0.027 7.794,-12.638 16.9,-24.145 29.746,-33.706 l -13.241,0 c -8.909,0 -17.82,0.105 -26.726,-0.068 -2.4,-0.047 -3.748,0.805 -5.042,2.671 C 13.294,-18.784 6.628,-9.405 0,0"
             id="path206"
             style="fill:#aab2ba;fill-opacity:1;fill-rule:nonzero;stroke:none" /></g><g
           transform="translate(280.4072,191.2314)"
           id="g208"><path
             d="m 0,0 c -11.324,-0.031 -22.647,-0.004 -33.971,-0.022 -2.413,-0.004 -1.114,-2.766 -0.586,-3.999 1.148,-2.672 2.096,-5.412 2.775,-8.242 1.334,-5.553 1.702,-11.341 1.049,-17.017 -0.102,-0.884 -0.217,-1.946 0.115,-2.799 0.467,-1.196 1.038,-1.161 1.368,-0.017 0.34,1.175 -0.076,2.992 -0.085,4.206 -0.025,3.227 0.484,6.5 0.403,9.705 -0.06,2.38 -0.263,4.745 -0.741,7.082 -0.478,2.337 -1.231,4.647 -2.391,6.916 -0.612,1.195 -1.146,2.343 1.049,2.33 9.488,-0.057 18.977,0.047 28.465,-0.055 2.318,-0.025 2.78,-1.498 2.793,-3.406 0.038,-5.352 -0.016,-10.705 0.03,-16.057 0.015,-1.81 -0.218,-3.664 0.647,-5.375 0.263,-0.448 0.63,-0.562 1.101,-0.34 0.033,8.036 0.064,16.072 0.1,24.108 C 2.128,-1.474 2.239,0.006 0,0"
             id="path210"
             style="fill:#aab2ba;fill-opacity:1;fill-rule:nonzero;stroke:none" /></g><g
           transform="translate(309.6309,150.9097)"
           id="g212"><path
             d="m 0,0 c -0.003,-0.255 -0.006,-0.51 -0.009,-0.765 -4.699,2.549 -5.272,5.594 -1.473,8.865 11.901,10.245 23.109,21.261 35.076,31.431 0.273,0.21 0.537,0.433 0.789,0.67 C 36.305,38.438 34.26,37.599 33.399,36.813 23.371,27.661 13.271,18.585 3.192,9.489 2.921,9.244 2.68,8.965 2.397,8.735 -2.256,4.945 -2.257,4.946 0,0"
             id="path214"
             style="fill:#aab2ba;fill-opacity:1;fill-rule:nonzero;stroke:none" /></g><g
           transform="translate(281.8574,164.1348)"
           id="g216"><path
             d="M 0,0 C 0.19,-0.012 0.382,-0.01 0.572,0.007 0.571,-2.489 0.571,-4.985 0.571,-8.182 11.372,-0.75 20.1,7.911 29.208,16.117 29.479,15.83 29.612,15.489 29.61,15.095 29.373,13.668 28.351,12.75 27.384,11.847 19.477,4.461 11.44,-2.776 2.71,-9.198 1.948,-9.758 1.177,-10.664 0.147,-10.237 -1.068,-9.733 -1.021,-8.419 -0.942,-7.377 -0.757,-4.906 -1.815,-2.261 0,0"
             id="path218"
             style="fill:#aab2ba;fill-opacity:1;fill-rule:nonzero;stroke:none" /></g><g
           transform="translate(311.0889,179.3867)"
           id="g220"><path
             d="m 0,0 c -0.008,0.288 -0.016,0.577 -0.023,0.865 1,2.756 0.71,5.478 -0.321,8.138 -0.863,2.231 0.11,2.847 2.18,2.835 10.363,-0.061 20.726,-0.08 31.09,-0.114 C 32.923,11.461 32.921,11.198 32.919,10.936 31.24,10.041 29.422,9.981 27.575,9.984 20.252,9.995 12.928,9.935 5.605,10.017 2.822,10.047 1.547,9.345 2.18,6.197 2.64,3.912 2.965,1.267 0,0"
             id="path222"
             style="fill:#aab2ba;fill-opacity:1;fill-rule:nonzero;stroke:none" /></g><g
           transform="translate(311.0889,179.3867)"
           id="g224"><path
             d="m 0,0 c 2.8,3.469 0.813,7.125 0.229,10.938 11.023,0 21.857,0 32.69,-0.001 -8.958,-8.096 -17.92,-16.187 -26.87,-24.289 -2.868,-2.596 -5.405,-5.563 -8.618,-7.773 -2.482,-1.706 -2.827,-3.616 -0.7,-5.874 0.656,-0.696 1.205,-1.492 1.802,-2.243 -0.029,-0.227 -0.048,-0.456 -0.054,-0.684 -0.375,-2.89 -2.521,-3.284 -4.819,-3.328 -6.194,-0.119 -12.389,-0.043 -18.583,-0.046 -7.379,-0.004 -14.757,-0.026 -22.136,-0.008 -2.46,0.006 -4.919,0.016 -7.379,0.033 -11.651,0.888 -4.651,14.888 -6.352,22.534 0.054,3.949 -0.024,7.892 -0.69,11.828 -0.596,3.525 -2.696,6.363 -3.933,9.96 11.421,0 22.697,-0.031 33.973,0.026 2.308,0.011 2.097,-1.46 2.104,-2.938 0.032,-7.796 0.068,-15.592 0.104,-23.387 10e-4,-3.227 10e-4,-6.453 10e-4,-10.214 C -18.714,-17.301 -8.688,-9.429 0,0"
             id="path226"
             style="fill:#aab2ba;fill-opacity:1;fill-rule:nonzero;stroke:none" /></g><g
           transform="translate(250.313,148.7065)"
           id="g228"><path
             d="m 0,0 c 1.791,-1.163 3.737,-1.5 5.881,-1.492 2.693,0.01 5.386,0.018 8.079,0.024 13.465,0.034 26.93,0.028 40.395,-0.032 2.104,-0.01 3.83,0.27 4.9,2.253 1.377,-1.991 2.812,-3.946 4.118,-5.983 1.341,-2.095 0.316,-3.174 -1.8,-3.51 C 60.622,-8.892 59.627,-8.788 58.654,-8.788 44.238,-8.789 29.822,-8.789 15.406,-8.789 l -8.65,0 c -6.834,-0.01 -6.834,-0.01 -6.801,6.965 C -0.042,-1.217 -0.016,-0.608 0,0"
             id="path230"
             style="fill:#aab2ba;fill-opacity:1;fill-rule:nonzero;stroke:none" /></g><g
           transform="translate(251.0283,109.1279)"
           id="g232"><path
             d="m 0,0 c -0.005,3.161 0.076,6.324 -0.044,9.48 -0.081,2.12 0.534,3.064 2.857,3.033 8.144,-0.109 16.29,-0.045 24.435,-0.039 1.392,10e-4 2.909,0.028 2.723,-1.953 C 29.637,6.969 30.94,3.566 30.784,0.043 29.663,-1.158 28.157,-1.126 26.712,-1.139 19.179,-1.2 11.645,-1.191 4.111,-1.146 2.649,-1.137 1.175,-1.081 0,0"
             id="path234"
             style="fill:#aab2ba;fill-opacity:1;fill-rule:nonzero;stroke:none" /></g><g
           transform="translate(251.0283,109.1279)"
           id="g236"><path
             d="m 0,0 c 10.261,0.014 20.522,0.028 30.784,0.042 1.077,-2.675 2.132,-5.36 3.241,-8.023 0.68,-1.632 0.07,-2.275 -1.569,-2.274 -10.121,0.003 -20.242,0.016 -30.362,-0.013 -1.584,-0.004 -2.166,0.708 -2.136,2.22 C 0.012,-5.365 -0.01,-2.683 0,0"
             id="path238"
             style="fill:#aab2ba;fill-opacity:1;fill-rule:nonzero;stroke:none" /></g><g
           transform="translate(334.5566,112.0977)"
           id="g240"><path
             d="m 0,0 c 4.981,-3.878 8.584,-9.266 14.706,-13.239 l -4.806,0 c -10.723,0 -21.447,0.052 -32.169,-0.047 -2.048,-0.02 -3.393,0.554 -4.503,2.287 -2.221,3.468 -4.61,6.828 -6.929,10.233 0.904,1.027 2.154,1.102 3.366,1.119 9.394,0.126 18.789,0.02 28.184,0.06 C -1.422,0.416 -0.702,0.216 0,0"
             id="path242"
             style="fill:#aab2ba;fill-opacity:1;fill-rule:nonzero;stroke:none" /></g><g
           transform="translate(334.5566,112.0977)"
           id="g244"><path
             d="m 0,0 c -1.419,-0.919 -3.016,-0.757 -4.588,-0.757 -9.704,-0.001 -19.409,-0.006 -29.113,-0.009 -1.595,2.122 -3.319,4.159 -4.433,6.605 0.831,1.754 2.489,1.819 4.055,1.843 8.383,0.122 16.767,0.079 25.15,0.032 C -7.549,7.706 -6.301,7.299 -5.14,6.581 -2.807,4.872 -1.422,2.421 0,0"
             id="path246"
             style="fill:#aab2ba;fill-opacity:1;fill-rule:nonzero;stroke:none" /></g><g
           transform="translate(329.417,118.6787)"
           id="g248"><path
             d="m 0,0 c -9.466,-0.004 -18.931,-0.009 -28.396,-0.009 -1.573,0 -3.167,0.152 -4.598,-0.733 -0.915,1.267 -1.851,2.521 -2.736,3.809 -0.563,0.821 -1.996,1.371 -1.127,2.704 0.706,1.084 1.944,0.805 3.011,0.807 8.861,0.013 17.721,-0.062 26.579,0.035 C -2.661,6.664 -1.908,2.762 0,0"
             id="path250"
             style="fill:#aab2ba;fill-opacity:1;fill-rule:nonzero;stroke:none" /></g><g
           transform="translate(255.3296,101.0654)"
           id="g252"><path
             d="m 0,0 0,74.519 c 0,3.86 -6,3.867 -6,0 L -6,0 c 0,-3.86 6,-3.867 6,0"
             id="path254"
             style="fill:#aab2ba;fill-opacity:1;fill-rule:nonzero;stroke:none" /></g><g
           transform="translate(282.5049,102.5)"
           id="g256"><path
             d="m 0,0 0,32.825 c 0,3.218 -5,3.223 -5,0 L -5,0 c 0,-3.217 5,-3.223 5,0"
             id="path258"
             style="fill:#aab2ba;fill-opacity:1;fill-rule:nonzero;stroke:none" /></g><g
           transform="translate(313.2988,102.4717)"
           id="g260"><path
             d="m 0,0 c -8.461,11.271 -16.921,22.54 -25.382,33.81 -2.29,3.051 -7.501,0.064 -5.18,-3.029 8.46,-11.269 16.92,-22.539 25.38,-33.809 C -2.891,-6.079 2.32,-3.092 0,0"
             id="path262"
             style="fill:#aab2ba;fill-opacity:1;fill-rule:nonzero;stroke:none" /></g><g
           transform="translate(342.2109,105.2266)"
           id="g264"><path
             d="m 0,0 c -11.196,16.075 -22.393,32.151 -33.589,48.228 -1.826,2.622 -6.162,0.125 -4.317,-2.524 C -26.71,29.628 -15.514,13.552 -4.317,-2.523 -2.491,-5.146 1.845,-2.649 0,0"
             id="path266"
             style="fill:#aab2ba;fill-opacity:1;fill-rule:nonzero;stroke:none" /></g><g
           transform="translate(274.8115,140.8584)"
           id="g268"><path
             d="m 0,0 c 14.167,12.204 28.335,24.407 42.502,36.611 4.884,4.207 -2.216,11.253 -7.071,7.071 C 21.264,31.478 7.097,19.274 -7.071,7.071 -11.955,2.864 -4.855,-4.183 0,0"
             id="path270"
             style="fill:#aab2ba;fill-opacity:1;fill-rule:nonzero;stroke:none" /></g></g></g></g></svg>