<svg xmlns="http://www.w3.org/2000/svg" width="590.76" height="150.32"><defs><clipPath id="a"><path d="M0 288h560.01V0H0v288z"/></clipPath></defs><g clip-path="url(#a)" transform="matrix(1.25 0 0 -1.25 -45.09 254.637)"><path d="M435.009 165.606c.19-.017.383-.02.575-.007 1.332-1.195 1.182-2.825 1.2-4.361.048-4.082.069-8.165.005-12.248-.262-1.582.256-3.361-1.153-4.66l-.328-.001-.328.01.029 21.267" fill="#fff"/><path d="M164.059 87.474l-48.121 50.186c-1.21 1.26-2.46 2.59-2.954 4.268-1.763 5.984 5.489 10.322 9.26 13.479 5.5 4.598 10.947 9.26 16.419 13.89l33.617 28.444c.228.192.459.385.694.573-12.224 3.465-25.81 5.396-40.121 5.396-53.45 0-96.78-26.92-96.78-60.128s43.33-60.128 96.78-60.128c11.173 0 21.9 1.18 31.886 3.344-.233.22-.46.447-.68.676" fill="#1d8ed5"/><path d="M229.633 143.582c0 17.864-12.543 33.905-32.45 44.917l-56.354-38.594c-1.85-1.266-3.885-2.844-4.022-5.082-.156-2.552 2.209-4.459 4.326-5.892l57.913-39.209c18.823 10.969 30.587 26.56 30.587 43.86" fill="#1d8ed5"/><path d="M464.89 155.373l-.295-.023-.297.013c-1.52 1.47-1.147 3.399-1.157 5.182-.051 9.403 0 18.806-.032 28.208-.018 4.69-.31 4.976-4.986 4.997-7.326.032-14.653.037-21.98-.004-3.162-.018-3.32-.272-1.882-3.004.983-1.87 1.674-3.816 1.93-5.884.786-6.302 1.105-12.613-.072-18.915-.27-.448-.64-.56-1.11-.337-.45 6.419.41 12.859-.7 19.3-.55 3.18-2.451 5.465-3.772 8.11-1.093 2.194-.385 2.606 1.557 2.607 10.12.006 20.242-.054 30.36.04 2.649.024 2.546-1.538 2.539-3.344-.05-12.315-.072-24.631-.103-36.946" fill="#aab2ba"/><path d="M435.602 121.538c-1.356 2.771-.535 5.721-.622 8.58-.145 4.735-.014 9.481 0 14.222.425.191.796.116 1.115-.219 1.26-1.956 3.136-2.439 5.344-2.42 5.464.048 10.929-.013 16.393.024 4.969.034 5.256.356 5.352 5.446.009.486.016.971-.002 1.46.059 2.126-.303 4.292.609 6.335.26.422.627.556 1.1.406l.05-31.45c.003-.855.042-1.72-.653-2.384-1.863 2.217-.97 4.902-1.143 7.371-.16 2.282-1.033 3.29-3.337 3.284a3814.86 3814.86 0 0 0-19.726 0c-2.304.006-3.176-1.002-3.337-3.284-.173-2.469.719-5.154-1.143-7.37" fill="#aab2ba"/><path d="M435.602 121.538c.02 2.92.134 5.84.034 8.755-.071 2.078.45 3.107 2.815 3.072a786.355 786.355 0 0 1 22.987 0c2.363.035 2.888-.992 2.816-3.07-.1-2.915.012-5.837.034-8.756l-.11-8.017c-.452-.192-.811-.082-1.082.328-.744 1.371-.584 2.87-.621 4.34-.15 7.46-.15 7.46-7.761 7.462-4.008.001-8.02.034-12.028-.01-4.78-.054-5.155-.456-5.22-5.237-.01-.728.024-1.459-.046-2.187-.025-1.484.13-2.99-.617-4.37-.273-.414-.64-.522-1.095-.325l-.106 8.015" fill="#aab2ba"/><path d="M463.525 113.509c.107.05.235.008.341-.05.697-.37.944-1.23 1.11-2.003.476-2.218.833-4.468 1.517-6.632.493-1.564 1.165-3.101 2.135-4.432.447-.613 1.348-1.124.896-1.827-.412-.641-1.488-.38-2.094-.381-9.513-.03-19.029.066-28.542-.074-2.607-.04-3.388.815-3.269 3.34.191 4.018.075 8.048.09 12.074.22.014.44.025.66.033 1.377-1.433 1.037-3.232 1.064-4.95.088-8.665.088-8.667 8.772-8.664 5.59.002 11.18.012 16.77-.003 2.221-.007 3.28.628 2.192 3.019-.754 1.66-1.182 3.446-1.62 5.218-.13 1.763-.938 3.333-.209 5.088.04.096.09.198.187.244m-27.833 35.211l-.108 16.879c-.193 6.672.53 13.34-.524 20.03-.536 3.408-3.167 5.619-3.966 9.183 10.497 0 20.91.009 31.324-.007 2.451-.003 1.743-1.928 1.752-3.217.078-12.075.093-24.151.127-36.225l-.118-6.625c-1.007-2.06-2.888-2.503-4.906-2.544a465.922 465.922 0 0 0-18.655-.002c-2.022.04-3.892.503-4.926 2.529" fill="#aab2ba"/><path d="M435.692 148.72c1.795-1.142 3.726-1.547 5.874-1.508 5.582.103 11.168.1 16.75.002 2.145-.037 4.085.336 5.864 1.524.086-8.205 1.188-8.147-8.018-8.093-5.485.032-10.969.029-16.452-.003-2.53-.015-4.378.62-4.074 3.688.02 1.464.037 2.928.056 4.39m27.828-35.162c.364-1.697.96-3.361.717-5.143-1.02-1.083-2.381-1.128-3.71-1.143a973.197 973.197 0 0 0-20.36-.006c-1.34.013-2.677.123-3.74 1.114l-.057 5.177.02 4.378c1.064.974 2.388 1.134 3.735 1.147a974.09 974.09 0 0 0 19.64 0c1.348-.013 2.67-.173 3.734-1.147l.022-4.377" fill="#aab2ba"/><path d="M463.498 117.935h-27.107c.121 9.1-1.642 8.84 8.805 8.797 4.383-.018 8.767.007 13.15-.005 4.954-.015 5.147-.215 5.159-5.14.002-1.217-.004-2.435-.007-3.652m-27.07-9.555l27.809.035c1.019-2.555 1.98-5.135 3.078-7.656.745-1.712-.212-1.865-1.48-1.865-9.105 0-18.212.016-27.32-.012-1.576-.005-2.157.708-2.124 2.213.052 2.428.028 4.856.037 7.285" fill="#aab2ba"/><path d="M464.954 103.228v88.647c0 4.826-7.5 4.834-7.5 0v-88.647c0-4.826 7.5-4.834 7.5 0m-22.688-1.378v85.9c0 4.826-7.5 4.834-7.5 0v-85.9c0-4.825 7.5-4.833 7.5 0" fill="#aab2ba"/><path d="M480.269 100.532v52.59c0 3.217-5 3.222-5 0v-52.59c0-3.218 5-3.223 5 0" fill="#fff"/><path d="M504.24 189.837c3.711-6.43-.31-15.701-8.983-20.708-8.673-5.007-18.713-3.854-22.425 2.575-3.712 6.43.31 15.7 8.982 20.708 8.673 5.008 18.712 3.855 22.425-2.575" fill="#1d8ed5"/><path d="M475.22 148.762l-.715 2.09c-.253.418-.505.84-.843 1.193-3.015 3.147-3.031 3.203 1.006 4.177 8.92 2.152 17.827 4.359 26.705 6.685 3.476.91 3.59.822 3.492-2.883-.111-4.118.488-8.26-.361-12.358-1.181-1.293-2.77-1.465-4.358-1.487a684.426 684.426 0 0 0-19.7.005c-1.6.026-3.162.283-4.351 1.533-.314.329-.605.678-.874 1.045" fill="#aab2ba"/><path d="M505.237 125.01c-.003 6.688-.017 13.374-.027 20.06-.429.194-.79.108-1.08-.264-.945-2.89-3.086-3.832-5.94-3.824-5.37.014-10.743-.104-16.11.045-3.947.108-4.559.737-5.098 4.59-.154 1.108-.41 2.152-1.023 3.094l-.739.05c.008-6.757-.005-13.516.043-20.273a5.071 5.071 0 0 0 1.766-.384c-.004.27 0 .54.015.806.137 2.288 1.03 3.29 3.335 3.286 6.577-.018 13.155-.018 19.732 0 2.304.005 3.196-.998 3.334-3.286.135-2.23-.62-4.675 1.142-6.642.796.776.65 1.783.65 2.743" fill="#aab2ba"/><path d="M504.544 130.66c.036 1.758-.44 2.703-2.44 2.686-7.907-.067-15.813-.067-23.718 0-1.266.01-1.92-.367-2.22-1.087 1.488-.918 2.607-2.564 2.417-4.259-.143-1.286-.315-2.57-.463-3.855.487 1.376 1.69 1.482 4.83 1.504 4.266.03 8.53.008 12.797.006 6.878-.003 6.878-.004 7.035-6.684.033-1.256-.034-2.53.628-3.68.278-.403.636-.504 1.08-.3l.097 7.276c-.022 2.798-.102 5.597-.043 8.392" fill="#aab2ba"/><path d="M475.999 114.991c.225.013.449.022.673.03 1.066-1 1.028-2.317 1.05-3.617.089-2.785.029-5.576.034-8.365.004-2.113.922-3.088 3.072-3.087 7.522.003 15.043.017 22.565-.007 2.442-.007 2.96.95 2.038 3.145-1.037 2.464-1.694 5.057-2.007 7.727-.229 1.437-.864 2.91.394 4.204.224-.008.449-.017.672-.03.967-5.734 2.068-11.426 5.791-16.807-11.193 0-21.871.006-32.548-.005-1.85-.002-1.764 1.285-1.762 2.53.006 4.761.018 9.521.028 14.282m28.499 33.005l.061-2.931c.632-3.813-1.662-5.042-4.822-5.101a497.778 497.778 0 0 0-18.97.003c-3.139.062-5.441 1.238-4.835 5.1.186 1.187.027 2.428.026 3.644 1.14-.63 2.087-1.515 3.592-1.5 7.14.08 14.283.004 21.425.072 1.176.01 2.348.464 3.523.713m-27.807-29.328c.046 9.195-.988 7.986 7.89 8.055 4.872.038 9.758-.222 14.611.08 3.828.237 5.1-1.266 4.635-4.849-.14-1.079-.027-2.189-.029-3.286-1.063-.973-2.387-1.131-3.735-1.145a988.873 988.873 0 0 0-19.638 0c-1.346.014-2.67.172-3.734 1.145" fill="#aab2ba"/><path d="M476.691 118.668h27.107l.02-3.646c-.127-1.301.05-2.545.683-3.707-1.06-.985-2.392-1.104-3.73-1.117a1058.54 1058.54 0 0 0-20.318 0c-1.339.013-2.67.131-3.73 1.117l-.052 3.707.02 3.646" fill="#aab2ba"/><path d="M476.723 111.315l27.778.001c.253-3.563 1.21-6.926 2.903-10.068.917-1.704.518-2.396-1.472-2.386-8.905.046-17.811.056-26.715-.006-1.904-.013-2.608.696-2.551 2.58.1 3.29.046 6.585.057 9.88" fill="#aab2ba"/><path d="M475.204 132.797v-32.61c0-2.574 4-2.578 4 0v32.61c0 2.573-4 2.578-4 0m30.214-32.265v61.218c0 1.93-3 1.933-3 0v-61.218c0-1.93 3-1.934 3 0" fill="#aab2ba"/><path d="M505.21 145.07l-.325-.009-.325.004c-.921.958-.753 1.94-.062 2.93.005 4.022-.168 8.054.078 12.061.164 2.686-.912 2.99-3.075 2.434-9.827-2.518-19.662-5.004-29.734-7.563.642-1.64 2.917-2.107 2.738-4.073-1.171 1.401-4.049 1.892-3.414 4.115.512 1.79 3.045 1.444 4.731 1.87 8.903 2.25 17.841 4.361 26.706 6.746 2.326.626 2.8-.017 2.771-2.105-.075-5.469-.066-10.94-.089-16.41m-151.857 8.135c-.48-1.46-.696-3.173.217-4.515.931-1.37 2.554-1.704 4.045-1.117 1.623.64 2.875 2.155 3.994 3.43 1.465 1.67 2.9 3.364 4.349 5.046 2.09 2.426-1.431 5.978-3.536 3.535-1.45-1.682-2.885-3.375-4.347-5.045-.576-.658-1.37-1.263-1.864-1.969a2.267 2.267 0 0 0-.461-.365l2.144-1.135c.074.045.314.907.28.806 1.01 3.063-3.816 4.376-4.82 1.33" fill="#aab2ba"/><path d="M424.725 159.236c-1.127 5.284-3.658 9.403-9.555 11.123-5.017 1.463-10.051 2.424-15.26 2.987-11.093 1.2-22.02 1.192-32.745-2.316-1.217-.563-2.38-1.231-3.6-1.782-8.223-3.72-11.427-12.863-9.958-20.622.074-.085.14-.148.21-.223a4.763 4.763 0 0 0 1.826.56 4.41 4.41 0 0 0 2.19 1.165c.587 1.073 1.566 1.92 2.945 2.235 1.95 1.589 3.89 3.192 5.898 4.713 6.155 4.663 12.748 7.902 20.769 7.43 6.093-.36 10.397-4.718 10.522-10.81.039-1.89-.662-3.912.65-5.663 1.503-1.146 3.269-1.656 5.098-1.743 5.463-.26 10.936-.308 16.395.026 1.229.075 2.467.27 3.557.812v8.539c0 1.34.438 2.397 1.124 3.179a6.345 6.345 0 0 0-.066.39m2.849-55.88c-1.29 2.037-1.867 4.165-2.104 6.336-1.068.8-1.803 2.066-1.803 3.808v14.55c-.806.352-1.738.451-2.688.47-5.8.121-11.604.1-17.407.013-1.729-.027-3.375-.364-4.58-1.789-.01-.012-.015-.024-.023-.036a5.782 5.782 0 0 0-.188-2.088 5.285 5.285 0 0 0-.285-1.133 5.555 5.555 0 0 0-.532-2.373 4.915 4.915 0 0 0-.428-1.65c-1.176-4.346-4.273-7.392-8.773-8.505-4.647-1.15-7.832.143-9.22 3.598-.04.06-.067.127-.104.188a5.158 5.158 0 0 0-.838 2.045 4.715 4.715 0 0 0-.268 1.543v6.661c-.023.081-.037.162-.063.243-.497 2.225-1.939 3.245-4.175 3.277-6.154.087-12.308.098-18.46.002-.28-.779-.54-1.566-.814-2.346-.906-2.585-3.25-4.045-5.964-3.517a7.037 7.037 0 0 0-.387-1.053c-.006-1.83-.153-3.675.007-5.492.493-5.594 2.612-10.787 7.34-13.687 12.705-7.79 25.86-7.409 38.903-.52 1.483.783 2.375 1.632 3.007-.82.388-1.506 1.644-2.86 3.423-2.872 9.823-.062 19.647-.03 30.014-.03-1.437 2.063-2.578 3.578-3.59 5.177m-6.418 39.129c-7.027-.03-14.055-.185-21.08.09-.839.031-1.695.2-2.312.895a7.761 7.761 0 0 1-.904.763c-2.07-1.166-4.284-1.449-6.65-1.414-6.684.1-13.368-.03-20.05.053-2.832.034-5.413-.422-7.78-1.312a4.351 4.351 0 0 0-1.11-.799 4.368 4.368 0 0 0-1.974-1.454c-.068-.889-.33-1.759-.809-2.497a5.412 5.412 0 0 0 .148-3.133c6.351-.05 12.705-.01 19.056-.025 1.618-.003 3.23-.044 4.734-.586.33.064.678.101 1.051.101h10.691c1.105 0 2.016-.3 2.742-.787.817.573 1.676 1.07 2.702 1.126 7.28.398 14.563.244 21.844.091 1.015-.02 1.743-.363 2.212-.956v10.987c-.48-.67-1.21-1.137-2.51-1.143" fill="#aab2ba"/><path d="M379.894 134.777c-7.03.027-14.061.028-21.092.035-.041-1.264-.508-2.509-1.432-3.348.005.005-.235-.223-.414-.388-.118-.168-.386-.512-.431-.587-.15-.253-.28-.515-.42-.773l-.106-.203a34.121 34.121 0 0 1-.714-1.974c.09-.002.18-.002.274-.007 5.807-.257 11.638-.22 17.447 0 2.518.095 4.035-.628 4.759-3.003.192.24.38.482.568.725v1.413c0 .617.128 1.19.33 1.724.093 2.423 1.693 4.776 4.814 4.776h.67c-.795 1.837-2.61 1.604-4.253 1.61m44.875 26.266c-1.286 4.913-4.574 8.016-10.368 9.983-4.612 1.567-9.361 2.21-14.197 2.716-11.301 1.18-22.475 1.339-33.4-2.394-.073 0-.147-.082-.223-.247-.076-.166-.006-.336.207-.508 3.92.648 7.63 2.062 11.666 2.47 13.18 1.33 26.08.568 38.622-3.921 1.802-.646 3.178-1.92 4.419-3.545 1.639-2.149 2.277-4.634 3.036-7.073.079.109.178.196.265.296a5.794 5.794 0 0 0-.027 2.223" fill="#aab2ba"/><path d="M398.33 148.732c-.312 3 .607 6.1-.564 9.015-2.873 7.145-8.818 8.206-16.89 6.719-8.44-1.554-14.997-6.546-20.94-12.377.517.227 1.11.364 1.772.397 5.908 4.867 11.878 9.622 19.72 11.29 7.378 1.573 14.043-1 15.63-7.045 1.051-4.015 1.125-8.353-.198-12.498a17.3 17.3 0 0 1-.039-.645c2.736.582 3.022 1.559 1.508 5.144m-31.525 22.616l-.017-.754c-.268-.235-.5-.562-.811-.691-9.554-3.94-12.894-11.482-12.37-21.276-2.624 7.018 1.436 16.413 8.972 20.66 1.364.768 2.815 1.378 4.226 2.06" fill="#aab2ba"/><path d="M423.667 148.337c-8.447-1.866-16.893-1.769-25.338.395-.6-1.687 1.186-4.072-1.508-5.145.194-2.246 1.822-2.21 3.464-2.208 6.314.01 12.626.002 18.94.003 2.156.001 3.538.007 4.442.271v6.684zm.919-37.773c-.435.575-.735 1.287-.855 2.126-.428.227-.888.374-1.386.38-8.51.1-17.024.596-25.524-.263-1.243.021-1.881-.972-2.753-1.602-5.42-3.925-11.955-3.56-15.59.839-8.618.922-17.251.408-25.88.238a2.472 2.472 0 0 1-1.905-.958c.934-3.409 2.975-6.018 5.816-8.048 12.709-.638 25.419-.698 38.128 0 1.606.892 2.934 1.144 3.677-1.114.837-2.55 2.739-3.372 5.389-3.328 7.07.121 14.145.011 21.217.071 1.247.01 2.656-.53 3.844.646-2.414 3.36-4.143 6.914-4.178 11.012" fill="#aab2ba"/><path d="M378.478 112.044c-1.55-.933-3.27-.695-4.948-.698-7.613-.015-15.225-.017-22.837-.023-.106.22-.23.433-.315.659-2.534 6.736-2.066 7.419 5.073 7.419 6.097 0 12.198-.063 18.296.034 2.168.034 3.633-.308 3.291-2.935-.222-1.698.862-3.001 1.44-4.456m45.189 22.506c-.35.113-.739.18-1.181.185-7.642.073-15.289.1-22.927-.085-.883-.022-3.304.486-2.753-2.086l.115-.192c1.45-.981 2.139-2.73 2.065-4.447.001-.034.01-.066.01-.101a5.55 5.55 0 0 0 .019-1.827c1.29.914 2.592 1.54 4.305 1.508 5.912-.112 11.83-.105 17.743-.003a6.17 6.17 0 0 0 2.604-.51v7.559zm0-21.05v5.403c-.735.495-1.824.683-3.352.572-4.249-.309-8.579-.449-12.798.02-5.576.619-9.409-.805-10.696-6.688 1.075-1.196 2.501-.703 3.778-.711 7.754-.049 15.509-.038 23.264-.044a5.314 5.314 0 0 0-.196 1.448m-67.158-10.224c.986.524 2.02.754 3.154.752 10.607-.024 21.213-.024 31.819 0 1.134.002 2.169-.228 3.155-.752-8.29-5.57-17.37-6.606-26.994-4.834-4.113.758-7.621 2.768-11.134 4.834m56.171 65.905c6.493-1.049 11.049-6.273 10.177-11.667-.871-5.395-6.841-8.918-13.333-7.869-6.492 1.05-11.048 6.273-10.176 11.667.87 5.395 6.84 8.918 13.333 7.87" fill="#aab2ba"/><path d="M353.129 133.846c5.255 7.068 12.987 10.215 17.272 7.03 4.285-3.185 3.499-11.497-1.755-18.565-5.254-7.068-12.987-10.215-17.272-7.03-4.285 3.186-3.5 11.498 1.755 18.565m64.687 26.619l1.38-54.237c.114-4.496 7.115-4.514 7 0l-1.38 54.237c-.114 4.496-7.115 4.514-7 0M309.63 150.91a1.998 1.998 0 0 1-.558-1.153 3.15 3.15 0 0 1 .21-1.275c.667-1.454 1.747-2.64 2.546-4.005 1.195-2.041.727-3.211-1.711-3.41-1.215-.1-2.432-.07-3.65-.07-15.824-.002-31.648-.003-47.473 0-3.811 0-5.717 0-6.676.96C250 147 253 152 250 157c0-8 0-15-.42-23.205-.001-1.936-.004-3.875-.007-5.814a5.68 5.68 0 0 0 .367-2.924c.043-.344.063-.69.044-1.037.069-.096.148-.191.243-.28.84.675 1.098 1.653 1.057 2.618-.167 3.93.76 4.392 4.883 4.384 6.818-.015 13.637-.05 20.454.019 2.625.026 4.229-.7 4.098-3.675-.052-1.196.062-2.458 1.11-3.346 1.648 3.087-.156 6.607 1.04 9.739 2.373-.736 1.24-4.331 4.068-4.501 1.799 1.495 3.924 1.762 6.173 1.755 7.914-.024 15.828-.04 23.742.012 1.784.012 3.695-.338 5.2 1.098-4.78 5.94-7.42 13.273-12.421 19.067" fill="#aab2ba"/><path d="M281.83 123.74c-.02 1.337-.22 2.701-.026 4.005.522 3.5-1.049 4.301-4.29 4.182-6.314-.23-12.64-.068-18.962-.068-8.113 0-8.113 0-8.325-8.12.01-7.56.025-15.12.027-22.682.001-1.502-.114-2.92 2.097-2.932h1.155c11.172.042 22.357.018 33.984.018-4.566 8.255-6.15 16.713-5.66 25.597m5.107 5.237c-.203 2.952 1.798 2.896 3.855 2.892 10.42-.028 20.84-.02 31.26-.027 7.794-12.638 16.9-24.145 29.746-33.706h-13.241c-8.91 0-17.82.106-26.726-.067-2.4-.048-3.748.804-5.042 2.67-6.558 9.455-13.224 18.834-19.852 28.239m-6.53 62.253c-11.324-.03-22.647-.004-33.97-.022-2.414-.004-1.115-2.766-.587-3.999 1.148-2.672 2.096-5.412 2.775-8.242a49.044 49.044 0 0 0 1.05-17.017c-.103-.884-.218-1.946.114-2.799.467-1.196 1.038-1.16 1.368-.017.34 1.175-.076 2.992-.085 4.206-.025 3.227.484 6.5.403 9.705-.06 2.38-.263 4.745-.74 7.082-.479 2.337-1.232 4.647-2.392 6.916-.612 1.195-1.146 2.343 1.05 2.33 9.487-.057 18.976.047 28.464-.055 2.318-.025 2.78-1.498 2.793-3.406.038-5.352-.016-10.705.03-16.057.015-1.81-.218-3.664.647-5.375.263-.448.63-.562 1.101-.34.033 8.036.064 16.072.1 24.108.007 1.508.118 2.988-2.12 2.982m29.222-40.321l-.008-.765c-4.7 2.549-5.272 5.594-1.473 8.865 11.9 10.245 23.109 21.26 35.076 31.43.273.21.537.434.789.67 1.922-1.762-.123-2.601-.984-3.387-10.028-9.152-20.128-18.228-30.207-27.324-.271-.245-.512-.524-.795-.754-4.653-3.79-4.654-3.79-2.397-8.735" fill="#aab2ba"/><path d="M281.857 164.135c.19-.012.382-.01.572.007v-8.19c10.8 7.433 19.528 16.094 28.636 24.3.271-.287.404-.628.402-1.022-.237-1.427-1.259-2.345-2.226-3.248-7.907-7.386-15.944-14.623-24.674-21.045-.762-.56-1.533-1.466-2.563-1.04-1.215.505-1.168 1.819-1.089 2.86.185 2.472-.873 5.117.942 7.378" fill="#aab2ba"/><path d="M311.089 179.387l-.023.865c1 2.756.71 5.478-.321 8.138-.863 2.23.11 2.847 2.18 2.835 10.363-.061 20.726-.08 31.09-.114l-.007-.788c-1.68-.895-3.497-.955-5.344-.952-7.323.01-14.647-.05-21.97.033-2.783.03-4.058-.672-3.425-3.82.46-2.285.785-4.93-2.18-6.197" fill="#aab2ba"/><path d="M311.089 179.387c2.8 3.469.813 7.125.229 10.938l32.69-.001c-8.958-8.096-17.92-16.187-26.87-24.29-2.868-2.595-5.405-5.562-8.618-7.772-2.482-1.706-2.827-3.616-.7-5.874.656-.696 1.205-1.492 1.802-2.243a6.825 6.825 0 0 1-.054-.684c-.375-2.89-2.521-3.284-4.82-3.328-6.193-.12-12.388-.043-18.582-.046-7.38-.004-14.757-.026-22.136-.008-2.46.006-4.92.016-7.38.033C245 147 252 161 250.3 168.646c.054 3.949-.024 7.892-.69 11.828-.596 3.525-2.696 6.363-3.933 9.96 11.42 0 22.697-.031 33.973.026 2.308.01 2.097-1.46 2.104-2.938.032-7.796.068-15.592.104-23.387V153.92c10.518 8.165 20.544 16.037 29.232 25.466" fill="#aab2ba"/><path d="M250.313 148.707c1.791-1.163 3.737-1.5 5.881-1.492 2.693.01 5.386.018 8.079.024 13.465.034 26.93.028 40.395-.032 2.104-.01 3.83.27 4.9 2.253 1.377-1.992 2.812-3.947 4.118-5.984 1.341-2.095.316-3.174-1.8-3.51-.951-.152-1.946-.048-2.919-.048h-51.898c-6.834-.01-6.834-.01-6.801 6.964.003.607.029 1.216.045 1.824m.715-39.578c-.005 3.16.076 6.324-.044 9.48-.08 2.12.534 3.064 2.857 3.033 8.144-.11 16.29-.045 24.435-.04 1.392.002 2.91.029 2.723-1.952-.334-3.552.97-6.955.813-10.478-1.12-1.201-2.627-1.17-4.072-1.182-7.533-.061-15.067-.052-22.6-.007-1.463.009-2.937.065-4.112 1.146" fill="#aab2ba"/><path d="M251.028 109.128l30.784.042c1.077-2.675 2.132-5.36 3.241-8.023.68-1.632.07-2.275-1.569-2.274-10.12.003-20.242.016-30.362-.013-1.584-.004-2.166.708-2.136 2.22.054 2.683.032 5.365.042 8.048m83.529 2.97c4.98-3.878 8.584-9.266 14.706-13.24h-4.806c-10.723 0-21.447.053-32.17-.046-2.047-.02-3.392.554-4.502 2.287-2.221 3.468-4.61 6.828-6.93 10.233.905 1.027 2.155 1.102 3.367 1.119 9.394.126 18.789.02 28.184.06.729.003 1.449-.197 2.15-.413" fill="#aab2ba"/><path d="M334.557 112.098c-1.42-.92-3.016-.757-4.588-.757-9.704-.001-19.41-.006-29.113-.01-1.595 2.123-3.32 4.16-4.433 6.606.83 1.754 2.489 1.819 4.055 1.843 8.383.122 16.767.079 25.15.032 1.38-.008 2.628-.415 3.789-1.133 2.333-1.71 3.718-4.16 5.14-6.581" fill="#aab2ba"/><path d="M329.417 118.679c-9.466-.004-18.931-.01-28.396-.01-1.573 0-3.167.153-4.598-.732-.915 1.267-1.851 2.52-2.736 3.809-.563.82-1.996 1.37-1.127 2.704.706 1.084 1.944.805 3.011.807 8.861.013 17.721-.062 26.579.035 4.606.05 5.359-3.851 7.267-6.613m-74.087-17.614v74.52c0 3.86-6 3.866-6 0v-74.52c0-3.86 6-3.867 6 0m27.175 1.435v32.825c0 3.218-5 3.223-5 0V102.5c0-3.217 5-3.223 5 0" fill="#aab2ba"/><path d="M313.299 102.472l-25.382 33.81c-2.29 3.05-7.501.064-5.18-3.03l25.38-33.808c2.29-3.051 7.502-.064 5.182 3.028m28.911 2.755c-11.195 16.075-22.392 32.15-33.588 48.228-1.826 2.622-6.162.125-4.317-2.524l33.589-48.227c1.826-2.623 6.162-.126 4.317 2.523m-67.399 35.631l42.502 36.611c4.884 4.207-2.216 11.253-7.071 7.071a483816.515 483816.515 0 0 0-42.502-36.61c-4.884-4.208 2.216-11.255 7.07-7.072" fill="#aab2ba"/></g></svg>